<svg version="1.1" id="Layer_1" xmlns="http://www.w3.org/2000/svg" xmlns:xlink="http://www.w3.org/1999/xlink" x="0px" y="0px"
	 width="100%" viewBox="0 0 832 528" enable-background="new 0 0 832 528" xml:space="preserve">
<path fill="#000000" opacity="1.000000" stroke="none" 
	d="
M249.832916,122.178970 
	C240.587708,127.025543 234.173187,135.119324 227.513443,142.656097 
	C206.023193,166.976379 191.309174,194.798813 185.861237,227.134659 
	C185.045090,231.978912 185.617264,237.205704 182.366257,241.501694 
	C182.036209,241.937836 182.088364,242.849213 182.262726,243.453644 
	C185.887100,256.018707 184.112442,269.252563 187.439911,281.943451 
	C193.449722,304.864899 203.722855,325.447784 218.067612,344.259247 
	C237.493179,369.733521 262.399261,388.205841 290.588898,402.724426 
	C312.602142,414.061951 335.603058,422.554382 359.824677,427.886505 
	C390.005371,434.530518 420.603760,435.965302 451.250610,434.456573 
	C471.797485,433.445007 492.457611,431.553894 512.194946,424.722992 
	C512.665405,424.560181 513.204285,424.541565 513.628540,424.306488 
	C526.147522,417.368713 540.893311,416.352905 553.393921,409.764252 
	C561.030273,405.739410 570.279236,404.868835 576.486328,398.089355 
	C577.439209,397.048584 578.590332,396.725281 580.094971,396.997498 
	C582.876648,397.500793 585.173889,396.038849 586.468628,393.897339 
	C589.220703,389.345337 593.564575,388.271454 598.221802,386.783630 
	C604.190796,384.876709 609.666565,381.509186 614.351807,377.181671 
	C616.559204,375.142853 618.607178,373.015747 621.524841,371.910950 
	C622.533997,371.528839 623.842346,370.598999 624.063171,369.688721 
	C625.570312,363.475769 631.931030,361.094482 634.625610,356.290710 
	C637.033142,351.998718 641.836975,349.836456 643.103333,344.493561 
	C643.821045,341.465302 647.421326,338.854584 651.461365,341.340240 
	C653.325745,339.128693 653.579529,336.828796 653.774597,334.517914 
	C653.886597,333.191132 653.727966,331.549103 655.228088,331.061523 
	C662.035645,328.848846 661.187134,322.536255 661.946167,317.585693 
	C662.387451,314.707764 662.496765,313.221710 665.586914,312.400970 
	C669.165100,311.450592 671.602844,309.982117 671.251282,304.776337 
	C670.982239,300.793518 674.147217,296.417664 679.677185,295.884827 
	C679.674866,290.801910 681.053711,285.509308 674.220642,283.570251 
	C671.895203,282.910400 671.415039,280.346405 673.162415,279.333313 
	C676.879089,277.178528 678.363770,274.951691 678.825195,270.290283 
	C679.092224,267.592255 681.973206,262.454742 687.399780,262.386658 
	C687.157715,259.447327 687.598694,256.725281 683.365906,256.970703 
	C681.155029,257.098907 679.820312,255.371490 679.185486,253.301682 
	C678.994934,252.680145 679.184082,251.909393 678.907227,251.352127 
	C676.089783,245.681259 676.072815,245.689697 680.051025,241.934799 
	C679.889099,240.080215 678.236450,240.263672 677.079224,239.883209 
	C674.364075,238.990540 673.473755,237.562286 675.481201,235.140732 
	C677.446472,232.769989 676.565369,231.386475 674.061340,230.180496 
	C670.300537,228.369217 668.870361,225.259552 669.500122,221.116669 
	C669.723938,219.643936 669.578552,218.119034 669.698486,216.625748 
	C669.997864,212.896469 668.730774,210.512299 664.649475,210.103088 
	C663.075989,209.945328 661.216553,209.704468 661.226746,206.918518 
	C664.694763,206.726013 669.061523,207.854141 669.894104,202.379654 
	C667.615601,200.471405 665.203979,198.478149 662.826355,196.445160 
	C662.069519,195.798050 661.053040,195.170929 660.748413,194.321869 
	C657.157288,184.312927 647.495605,181.342163 639.751953,176.196884 
	C638.401733,175.299744 637.787964,174.498932 638.107910,173.048264 
	C638.465942,171.424835 639.037842,169.848511 639.394531,168.224869 
	C639.848083,166.160202 642.376404,164.019363 640.948425,162.231110 
	C638.111206,158.678207 634.957886,154.993774 631.123718,152.750580 
	C628.385376,151.148468 627.160339,154.889282 626.524963,157.215958 
	C625.663818,160.369827 626.787781,164.456024 621.158325,164.416748 
	C617.733887,164.392853 614.657104,165.302612 611.529236,162.560944 
	C607.241516,158.802597 601.785522,156.962097 596.306580,155.399872 
	C593.920410,154.719482 591.466736,154.098404 589.522217,152.376724 
	C588.600830,151.560898 587.557190,151.012222 586.345764,151.654984 
	C584.848877,152.449234 585.113708,153.919998 585.281250,155.206284 
	C585.870422,159.728088 590.725586,164.259995 595.406067,164.460831 
	C597.994995,164.571899 599.878479,165.882523 601.454834,167.564285 
	C604.274780,170.572861 606.682129,170.885498 608.690552,167.116486 
	C610.530090,166.890884 611.529358,167.888809 612.233337,168.984390 
	C613.546509,171.027985 615.107361,172.062103 617.638489,171.478531 
	C618.558167,171.266495 619.707703,171.371078 620.575134,171.743683 
	C622.936035,172.757797 626.938354,172.451721 627.169800,175.305115 
	C627.423950,178.437714 625.321350,181.487930 622.115906,183.183685 
	C620.965027,183.792542 619.930603,184.621658 618.968201,185.266357 
	C618.968201,185.892715 618.832397,186.320480 618.988525,186.521393 
	C621.583313,189.860931 623.632568,192.879623 623.147339,197.886963 
	C622.645691,203.063538 625.646301,207.971527 631.240906,211.867798 
	C624.727539,213.804794 620.068176,208.149887 614.526367,210.996658 
	C616.938599,213.440979 619.969116,213.269714 622.424988,214.332458 
	C626.881287,216.260895 630.509216,218.693008 632.433105,223.443970 
	C633.278137,225.530624 635.088196,227.232712 636.492676,229.084656 
	C637.640686,230.598465 638.646606,232.145538 637.580566,234.096497 
	C636.407349,236.243500 635.734131,239.480759 632.954041,239.469543 
	C629.980835,239.457565 627.351257,237.428085 625.750610,234.756805 
	C623.531006,231.052505 621.340271,227.301331 619.536743,223.386185 
	C617.985779,220.019348 615.629944,219.162125 612.284790,219.815353 
	C605.594482,221.121841 599.159424,221.082504 593.488159,216.462387 
	C591.901184,215.169510 590.020447,213.985321 590.367310,211.738998 
	C590.742737,209.307266 592.981384,209.167908 595.004578,208.785629 
	C598.099426,208.200821 601.175903,207.459274 604.198914,206.574799 
	C606.162415,206.000275 607.938538,204.993027 607.471619,202.111557 
	C604.347961,201.273224 602.176453,204.814743 598.692383,203.974991 
	C599.494507,201.568146 600.094177,198.945847 596.344910,198.898331 
	C596.023376,196.353531 597.369873,195.162003 598.960083,194.129486 
	C601.907776,192.215607 600.942383,190.271652 598.880249,188.527313 
	C593.361633,183.859116 593.333557,183.892273 592.969482,177.587982 
	C590.476990,179.432587 587.858459,178.034393 585.296570,178.318069 
	C584.071228,178.453751 582.958557,178.750092 582.506531,180.027054 
	C582.031616,181.368866 582.636719,182.284714 583.883118,182.808884 
	C585.889160,183.652496 585.787903,185.205383 585.471008,186.983734 
	C585.052124,189.334396 583.364807,189.015030 581.683716,189.173508 
	C578.763916,189.448776 575.697937,190.780701 574.198181,186.610870 
	C573.743347,185.346298 572.141724,185.967484 571.006958,186.030640 
	C569.762268,186.099899 568.532227,185.854904 568.190613,184.509766 
	C567.758667,182.808823 569.098633,182.166153 570.381104,181.696396 
	C571.776123,181.185394 573.297241,180.963654 574.619568,180.320190 
	C577.544006,178.897079 580.661682,177.514069 580.437012,172.466400 
	C575.796143,174.503891 573.400391,178.992661 568.625183,180.535416 
	C568.830811,177.176697 569.931641,174.919540 572.469788,173.163788 
	C576.207336,170.578400 579.046326,167.751007 576.637451,162.388916 
	C575.247498,159.295013 579.492615,151.193939 582.795593,149.948776 
	C585.819336,148.808884 584.451294,145.836105 585.872375,144.091949 
	C590.939148,142.457779 591.562378,150.492432 595.185852,149.147202 
	C598.974121,147.740814 603.589783,151.508026 606.227173,145.954437 
	C608.439758,149.678772 605.259094,152.059509 606.037720,155.147827 
	C609.612793,155.900314 610.928955,160.329666 614.914185,161.278748 
	C616.806580,161.729431 618.563538,163.303925 620.246948,161.018845 
	C621.798401,158.912979 624.143066,156.851501 622.779785,153.977417 
	C621.385315,151.037567 620.532776,147.859222 615.722717,147.594757 
	C610.727783,147.320160 607.647949,142.885284 606.466492,138.285660 
	C605.310059,133.783691 602.138855,133.830612 598.889160,133.439072 
	C595.236023,132.998871 595.547241,136.382980 594.286621,138.751389 
	C592.522827,138.365799 590.643127,138.265533 589.059753,137.528549 
	C587.162659,136.645538 585.762390,134.795456 586.400940,132.662399 
	C587.165222,130.109283 589.542603,130.647552 591.478821,131.090027 
	C593.157715,131.473694 595.034546,133.571075 596.429382,131.630203 
	C598.122803,129.273895 600.289124,126.892014 600.511292,123.828285 
	C600.709045,121.102196 598.936768,120.767464 596.887512,121.952713 
	C595.166443,122.948128 593.593079,124.196175 591.931885,125.298561 
	C588.582642,127.521240 585.453613,125.634499 584.293579,123.182541 
	C580.958557,116.133324 578.808533,108.524757 581.415466,100.729897 
	C582.745361,96.753242 581.372192,94.881050 578.138611,93.226006 
	C567.437805,87.749077 556.395081,83.093140 544.956909,79.415756 
	C538.144897,77.225677 531.242371,75.317780 524.388306,73.257019 
	C523.031616,72.849113 521.321472,72.933800 520.854797,71.057510 
	C525.607971,68.677032 552.410706,76.756226 575.087830,87.642845 
	C592.305420,95.908485 609.113342,104.931618 624.568176,116.366570 
	C620.564148,111.204102 615.572205,107.327301 610.071167,104.046539 
	C602.678040,99.637375 602.545593,99.151550 607.260010,91.811264 
	C615.996826,78.208092 625.927246,65.673386 640.896362,58.491245 
	C648.836487,54.681580 657.070129,51.800774 666.397522,53.544395 
	C671.213013,54.444592 676.435730,54.097610 681.336365,53.376156 
	C687.480103,52.471691 692.937622,53.938568 698.166382,56.637180 
	C699.875610,57.519352 703.003967,57.502991 701.604187,61.749054 
	C700.592834,64.816795 707.697937,68.141212 711.070435,66.280312 
	C716.293274,71.592857 718.248718,78.594238 720.075012,85.427658 
	C728.487488,116.904228 729.283447,148.241791 717.246643,179.127655 
	C712.735107,190.703690 706.457031,201.292023 698.602661,210.901657 
	C696.953369,212.919586 696.453857,214.711899 696.995544,217.244858 
	C700.542053,233.826553 701.888428,250.738937 699.387573,267.402557 
	C696.570251,286.175415 691.357727,304.474976 681.961426,321.328247 
	C667.466248,347.326904 648.438049,369.310059 624.609863,387.127502 
	C621.774414,389.247711 619.124390,392.076141 614.802673,389.703949 
	C613.220520,388.835449 611.473633,390.726257 609.884216,391.592163 
	C602.011047,395.881104 594.398254,400.607971 586.256836,404.452576 
	C555.310669,419.066223 522.796936,428.504486 489.199402,434.481842 
	C482.015625,435.759918 474.808441,436.906494 467.706635,438.746765 
	C479.662598,438.873962 491.256439,436.389526 502.839142,433.794952 
	C514.576477,431.165710 526.356567,428.791321 538.905762,427.410767 
	C537.981018,430.693726 535.745605,430.769348 534.003174,431.281708 
	C511.407837,437.925720 488.307922,441.870422 464.906250,444.293518 
	C453.434174,445.481445 441.910370,444.786713 430.468079,445.560303 
	C422.355316,446.108795 415.477386,441.871887 407.629425,441.648682 
	C389.631042,441.136932 371.956390,437.786804 354.282104,434.473633 
	C359.800629,437.529297 366.313873,437.037262 371.861542,439.902679 
	C349.056641,436.767456 327.128662,430.579376 306.176849,420.874695 
	C331.710236,426.261597 356.827301,433.543793 383.019196,435.617523 
	C332.853363,428.263306 286.671783,411.303619 246.130188,379.777832 
	C251.190262,383.536774 247.679504,390.967743 253.165176,394.517181 
	C255.203644,395.836212 253.509644,397.847382 252.406448,399.277618 
	C248.286819,404.618683 241.293365,405.901947 233.767899,402.482239 
	C225.533691,398.740479 217.955307,393.864746 211.038773,388.058228 
	C200.050766,378.833588 190.195969,368.395538 179.990219,358.346100 
	C174.483292,352.923492 167.815857,349.095886 162.052551,344.014893 
	C153.120834,336.140594 148.627777,324.962372 140.524124,316.575775 
	C130.606445,306.311859 125.048019,293.926910 121.679497,280.230194 
	C119.888916,272.949524 122.484940,266.950592 127.230919,262.581177 
	C132.074570,258.121796 138.219330,255.476624 145.605515,258.345581 
	C154.085373,261.639374 161.831482,266.029266 169.133102,271.333496 
	C170.838699,272.572540 172.284546,274.258148 175.998154,274.772125 
	C173.838669,241.852676 179.388290,210.799652 194.942200,181.977188 
	C210.299179,153.519653 231.939255,130.837952 258.511993,112.742371 
	C257.261261,116.268501 253.685623,117.539078 251.191040,120.760376 
	C250.454498,121.550766 250.143707,121.864861 249.832916,122.178970 
M687.142029,162.709015 
	C696.902222,140.317245 695.512512,118.710487 682.561279,97.928085 
	C677.955872,90.537857 668.359558,86.964287 659.994141,89.460014 
	C648.242981,92.965851 640.673279,101.241631 634.337158,111.240967 
	C631.684937,115.426636 631.592468,118.062195 635.845215,121.125618 
	C639.374573,123.667976 642.898682,126.547745 644.908081,130.668411 
	C639.128418,127.971466 634.533081,123.695084 629.394714,120.172028 
	C637.086670,128.330124 645.166687,136.010544 652.344543,144.549530 
	C667.308289,162.350830 678.895996,181.972702 684.986572,204.617111 
	C686.715881,211.046585 686.306763,217.982849 689.337830,224.045715 
	C692.018494,229.407669 693.427490,234.898560 693.027222,240.897858 
	C692.927185,242.397217 692.401001,244.308945 694.496582,245.186035 
	C695.999207,242.510300 696.181519,242.498550 696.004822,239.753906 
	C695.161377,226.658234 694.569031,213.628845 688.110352,201.531311 
	C682.912842,191.795822 679.585266,181.187637 676.718811,170.256912 
	C681.080688,173.461655 681.569336,173.394958 684.268677,168.807159 
	C685.276306,167.094635 685.991394,165.210007 687.142029,162.709015 
M186.744675,336.759308 
	C188.209885,338.351929 189.627975,339.991119 191.148743,341.528809 
	C196.599747,347.040558 201.046982,353.489746 207.439468,358.150177 
	C210.532135,360.404907 214.938873,360.220459 217.156479,362.291595 
	C221.146591,366.018127 223.695175,363.871307 227.376816,362.575134 
	C226.637589,361.466949 226.212799,360.961304 225.930649,360.385773 
	C224.134491,356.722046 219.387253,357.830170 217.218750,355.193237 
	C212.587021,349.560913 208.121689,343.760620 204.005905,337.743408 
	C199.329483,330.906555 194.009659,324.470154 190.435974,316.904358 
	C190.095840,316.184296 189.424637,315.118652 188.857834,315.086700 
	C184.168060,314.821869 182.391373,310.796692 179.652527,308.096069 
	C174.384888,302.901917 168.374542,298.782349 161.924088,295.250580 
	C160.760834,294.613647 159.487885,293.842468 158.221664,294.880249 
	C156.928711,295.939972 157.571091,297.247681 157.976837,298.542938 
	C159.133423,302.235199 160.768906,305.667542 163.252502,308.652863 
	C170.911041,317.858459 178.586105,327.050354 186.744675,336.759308 
z"/>
<path fill="#000000" opacity="1.000000" stroke="none" 
	d="
M249.704895,122.481133 
	C250.143707,121.864861 250.454498,121.550766 251.012512,121.014145 
	C256.033478,120.594551 258.891449,116.831978 262.250977,114.379463 
	C287.288666,96.101692 314.911804,83.205910 344.376984,73.997543 
	C344.694977,73.898163 345.044067,73.866234 345.335266,73.717789 
	C356.108490,68.226257 356.888580,70.467636 360.452942,82.591553 
	C362.674835,90.149178 364.191254,91.665009 372.222015,91.135956 
	C375.668518,90.908905 379.014557,90.388283 382.549805,91.634254 
	C388.994934,93.905769 395.238983,87.120361 393.660767,79.724663 
	C392.826477,75.815094 391.780945,72.083504 392.667694,67.929306 
	C393.382904,64.578857 394.891052,63.054939 398.210022,62.706264 
	C405.658203,61.923790 413.065613,60.799206 420.581696,60.675846 
	C424.848816,60.605812 428.878540,60.177803 429.528168,54.390564 
	C429.878967,51.264843 433.125244,50.611633 435.643433,49.998211 
	C442.020966,48.444672 448.549194,48.687702 455.035034,49.123348 
	C456.435730,49.217426 458.289734,49.805161 459.060059,50.825813 
	C463.052246,56.115414 470.363556,57.178425 474.018982,62.920860 
	C475.078644,64.585556 477.178406,65.642136 478.939209,63.152599 
	C479.722839,62.044678 480.883423,61.929398 482.070892,62.083721 
	C493.627991,63.585636 505.151886,65.288185 516.479065,68.096962 
	C517.034424,68.234665 517.477173,68.826477 518.071045,69.282639 
	C515.794861,71.622765 513.166931,70.202934 510.715454,70.493027 
	C510.162506,71.897530 513.078003,73.459862 510.654633,74.640701 
	C507.819885,76.021980 506.050262,79.658882 502.012054,78.544823 
	C499.095428,77.740189 497.143829,75.726562 495.312805,73.594681 
	C493.426819,71.398827 480.210419,67.005348 477.634888,67.916588 
	C473.115570,69.515533 471.770538,81.096764 475.845154,84.720772 
	C478.663879,87.227806 481.814819,89.361313 485.412903,92.118027 
	C479.172546,96.680428 477.397247,104.500343 470.887848,108.968140 
	C473.588318,111.328224 474.568909,114.267410 473.497101,117.718300 
	C472.829956,119.866203 470.433167,121.244209 469.439636,119.714951 
	C466.097046,114.570076 460.307709,115.501709 455.822662,113.363426 
	C452.096191,111.586769 447.777069,110.725945 448.423798,104.600182 
	C444.521667,106.842758 444.609344,112.324745 439.657379,112.261154 
	C437.694397,109.735519 440.895966,107.441841 440.216248,104.658775 
	C437.234100,104.453781 435.400452,106.622406 433.363831,108.038368 
	C424.936157,113.897736 424.975098,113.953766 419.075012,105.407799 
	C421.756378,100.269974 419.938904,97.937363 412.499878,96.925545 
	C411.330139,103.626808 414.290405,108.663582 418.762024,113.300201 
	C422.448395,117.122574 421.440674,119.983086 417.174042,122.934799 
	C414.138153,125.035080 411.044189,127.203918 408.212921,129.576172 
	C398.865234,137.408279 396.734344,136.890137 392.724396,124.858734 
	C397.859375,124.706581 397.451904,129.546631 399.691681,133.014252 
	C401.690125,126.133446 406.132599,121.570930 409.266449,116.195335 
	C411.154266,112.957115 410.704163,109.942764 409.338074,107.188766 
	C407.852661,104.194252 404.712097,105.513283 402.115265,105.695236 
	C397.608948,106.010986 393.294434,107.176743 388.906128,108.146736 
	C383.889221,109.255707 378.926514,107.746460 374.450134,105.163345 
	C372.424835,107.380020 375.575043,111.651855 370.718475,111.387054 
	C371.671356,114.313896 373.621582,115.451546 375.488739,116.357384 
	C379.918304,118.506363 381.931030,122.909241 385.119476,126.199348 
	C386.309784,127.427597 386.166565,129.392838 384.787689,130.202377 
	C381.053619,132.394653 379.046906,136.183014 376.028351,139.012665 
	C374.735535,140.224609 373.264618,140.779343 372.060547,139.584793 
	C369.266418,136.812790 364.460724,136.045212 364.310425,130.533981 
	C364.205566,126.689354 361.239105,123.576553 358.830627,120.617195 
	C356.347992,117.566704 355.997650,114.986275 359.601227,112.740891 
	C361.770538,111.389198 361.900848,109.744812 360.710297,107.538605 
	C353.335999,109.841133 348.704742,114.604324 346.476562,122.472916 
	C349.712769,122.364845 352.715851,119.640869 355.377686,122.877457 
	C357.411163,125.349976 358.880493,128.093460 360.440948,131.131683 
	C357.361786,133.296280 356.345245,136.158554 357.715027,139.716507 
	C358.287720,141.204056 359.656158,142.941299 357.601318,144.115753 
	C355.647308,145.232559 354.703461,143.148773 353.533630,142.117477 
	C352.793488,141.464981 352.231445,140.610474 351.574402,139.828568 
	C346.202393,145.970871 336.963684,144.367172 332.452911,136.788437 
	C325.368591,137.008102 319.159821,139.849365 312.733459,142.863281 
	C314.327026,145.314377 316.339508,144.702621 317.995178,144.698212 
	C320.573486,144.691345 323.712189,142.857559 325.498413,145.457794 
	C327.592712,148.506454 329.812897,151.819931 329.742096,155.822815 
	C329.671570,159.813171 329.199188,163.798798 329.191528,167.787048 
	C329.186432,170.430588 327.637390,171.988358 326.173065,173.830536 
	C324.265167,176.230713 321.898621,178.898560 326.464813,181.763718 
	C322.310791,183.379730 319.136902,185.238586 318.955719,190.435699 
	C318.849152,193.494202 313.175720,195.881851 310.904602,194.828278 
	C308.860901,193.880203 307.608215,192.653961 308.386658,190.173462 
	C308.782135,188.913406 308.953217,187.579224 307.910431,185.748215 
	C301.849762,189.731506 302.119965,196.545273 299.996094,202.354233 
	C296.384552,201.964661 293.280670,200.511490 290.093079,199.320755 
	C288.445770,198.705353 287.309509,197.739563 288.268127,196.005173 
	C289.265717,194.200226 290.770752,194.885025 292.078400,195.850983 
	C296.996796,199.484314 296.885620,199.435410 299.740845,193.609268 
	C301.930023,189.142120 304.347778,184.669739 306.186127,180.165802 
	C308.427612,174.674225 308.496460,168.295837 309.584900,161.826004 
	C307.350067,162.098175 305.791412,163.794815 303.852814,161.142960 
	C300.739868,156.884567 297.890320,157.636841 295.650238,162.554016 
	C295.022308,163.932358 292.992065,164.117508 292.994873,165.951630 
	C294.002258,167.611511 296.338562,166.258820 297.515442,168.185089 
	C297.494476,170.079315 296.856293,172.676575 294.369812,171.184296 
	C291.520844,169.474472 289.173981,169.591232 286.403839,170.466293 
	C285.055115,170.892334 283.605988,170.908813 282.914673,169.438309 
	C282.051880,167.602921 280.348999,167.733765 278.848633,167.102829 
	C268.882843,162.911926 259.507965,167.500534 249.969101,168.944061 
	C243.708527,169.891464 241.654724,168.474884 241.813583,161.957062 
	C241.833786,161.128036 241.915878,160.293121 242.056732,159.476013 
	C242.329834,157.891632 243.346405,156.244812 241.685455,154.847473 
	C240.947754,154.226852 239.880859,154.271164 239.421707,154.934845 
	C238.254501,156.621948 236.037827,158.011703 236.885284,160.498978 
	C238.065414,163.962540 239.376770,167.392319 240.848328,170.741486 
	C241.711243,172.705414 243.176147,173.313751 245.653412,173.167130 
	C253.249466,172.717621 260.703827,170.462326 268.318787,171.031570 
	C269.229095,173.586258 265.559875,172.986465 266.295898,175.715927 
	C272.122986,175.151672 278.112976,174.538177 284.109985,174.003769 
	C287.603851,173.692413 291.350067,172.095505 293.854309,176.428192 
	C295.024902,178.453491 295.461273,180.141861 293.605743,181.738647 
	C291.814636,183.279999 289.862610,184.671860 287.386322,182.856949 
	C285.552856,181.513199 284.060669,179.507599 281.650513,179.617371 
	C279.518616,180.358566 281.256073,182.568176 279.850403,183.534470 
	C276.286469,183.260666 274.182037,179.429291 270.441223,179.535889 
	C270.117126,181.321045 271.329071,182.125320 272.155579,183.072708 
	C275.965485,187.439743 275.865204,187.974289 270.581696,190.835327 
	C265.969635,193.332779 261.366211,195.846237 257.026520,198.927292 
	C265.374237,198.838379 271.739716,193.846832 278.737701,189.657745 
	C279.331451,192.547775 279.431549,194.438232 276.072784,194.456528 
	C274.977509,194.462479 273.473022,194.754440 272.858673,195.497116 
	C268.599304,200.646286 261.905457,201.512512 256.286377,204.603439 
	C254.962173,195.756271 242.900528,185.776596 233.921875,182.880554 
	C233.133560,183.990082 233.787430,184.947830 234.579376,185.446045 
	C241.842712,190.015656 246.245575,197.163620 251.241837,203.772888 
	C252.555710,205.510925 254.078644,205.952957 256.017578,204.972763 
	C255.022079,207.690170 256.594849,210.584030 254.963043,213.387939 
	C258.210205,213.829773 260.741882,215.525665 263.666870,212.747116 
	C265.923401,210.603531 268.613312,212.370514 269.121216,215.823807 
	C270.324677,224.005630 264.388733,234.206345 256.692780,237.180161 
	C255.915619,237.480469 255.158813,237.880127 254.353760,238.052872 
	C252.032852,238.550873 249.731552,241.233215 247.412537,239.139236 
	C245.177383,237.121002 247.556122,234.913849 248.154083,232.775742 
	C249.513489,227.915070 245.809357,223.525452 240.679367,223.951477 
	C237.242950,224.236877 234.779251,223.279678 233.754333,219.758621 
	C232.920532,216.894073 232.273972,214.091568 236.234390,212.797134 
	C235.507812,210.543762 233.856827,208.852341 233.431015,206.481812 
	C232.503113,201.316086 229.108978,198.128876 224.340332,196.125916 
	C217.221237,193.135712 212.816879,186.735596 209.175476,180.788559 
	C206.892303,177.059738 209.973648,171.038498 212.745850,166.576019 
	C221.356125,152.715820 233.567703,141.966843 244.291611,129.934998 
	C246.282928,127.700821 248.630692,125.772934 249.704895,122.481133 
M229.057190,151.544556 
	C227.658112,153.148224 225.920868,154.531036 226.488922,157.121964 
	C226.799591,158.538986 226.137650,159.605255 224.655396,160.224365 
	C219.011642,162.581711 217.044159,167.153549 219.219528,173.071503 
	C222.469864,170.474136 225.537537,167.692368 229.668915,166.631546 
	C231.428497,166.179733 231.791931,164.916290 231.270660,163.128067 
	C229.676208,157.658417 229.097000,152.395752 234.227982,148.126984 
	C235.615982,146.972244 236.414444,145.108887 237.483505,143.570786 
	C236.033051,143.641159 235.208466,144.175766 234.589767,144.888992 
	C232.854355,146.889542 231.203857,148.963776 229.057190,151.544556 
M406.203827,74.410126 
	C405.405609,76.871986 401.753204,77.579369 401.843781,80.092888 
	C401.943359,82.854774 404.829468,84.258675 406.937225,85.752869 
	C409.053528,87.253136 410.743530,86.801315 412.145477,84.305252 
	C415.582397,78.185966 413.237030,72.851395 410.772461,67.384087 
	C406.741455,68.169998 407.477264,71.472176 406.203827,74.410126 
M222.761368,185.144989 
	C223.878311,182.163376 227.839294,179.204132 222.245758,175.429352 
	C223.608627,180.353409 216.693222,183.207870 220.534256,188.012482 
	C222.088959,187.800552 222.077499,186.606537 222.761368,185.144989 
M367.952942,129.811020 
	C368.925171,130.522552 370.099579,130.485001 370.287598,129.328506 
	C370.721863,126.657524 370.332184,124.076302 368.017395,121.838547 
	C366.470734,124.528366 366.869019,126.883507 367.952942,129.811020 
z"/>
<path fill="#000000" opacity="1.000000" stroke="none" 
	d="
M520.959900,339.069794 
	C525.015686,337.874115 526.058533,332.869415 530.668457,331.629730 
	C531.035828,335.657898 533.427429,335.727020 536.807373,335.010345 
	C540.687988,334.187531 544.437439,333.132904 548.489563,331.801056 
	C547.133850,328.574341 547.057373,324.782471 542.271301,325.186218 
	C541.396729,325.260010 540.667542,324.753845 540.300781,323.913269 
	C538.571289,319.948730 536.870728,320.774750 534.747375,323.721222 
	C531.919128,327.645691 530.314819,324.897125 528.516235,322.513519 
	C539.487183,316.799835 547.638000,306.039673 545.842712,299.404419 
	C542.339966,300.170502 540.849304,302.888031 539.524963,305.720856 
	C537.539490,309.968018 535.318909,314.021271 531.714722,317.177582 
	C526.180847,322.023712 520.667358,321.232941 514.828979,314.669189 
	C514.918762,314.356689 515.019836,313.771484 515.106689,313.773590 
	C522.240051,313.946320 522.771423,308.160767 524.336060,303.435028 
	C525.027466,301.346802 525.655334,300.274780 528.345642,300.126617 
	C532.212280,299.913727 534.731750,297.351044 535.888550,293.364594 
	C536.713501,290.521729 536.929626,287.030548 541.182495,286.404755 
	C543.348877,286.085968 541.518250,283.323029 543.439636,281.591064 
	C549.794556,289.528168 552.648071,297.946075 548.650452,307.936401 
	C556.195312,308.534637 561.704285,316.902283 569.337891,309.867523 
	C572.241272,315.406677 573.472290,322.120850 580.166260,323.167938 
	C585.886536,324.062744 591.740967,325.561279 598.908936,324.462402 
	C594.963745,320.787659 590.912842,320.179413 587.547546,320.523865 
	C578.322815,321.467957 576.057495,314.621826 572.776001,308.686035 
	C572.300354,307.825623 572.193298,306.765015 571.739136,305.888550 
	C569.353638,301.285065 568.391602,296.886536 572.904419,292.858459 
	C573.841980,292.021637 574.567749,290.791595 574.318909,289.117218 
	C569.867188,287.346710 568.884460,292.906891 564.059814,293.282654 
	C564.059814,288.810547 563.961609,284.365784 564.091187,279.927673 
	C564.193054,276.438751 564.515442,272.952118 564.851318,269.475250 
	C565.180481,266.068726 564.947693,263.086182 560.228271,262.774323 
	C561.889465,257.641998 566.758545,258.175568 569.811035,257.149017 
	C572.449463,256.261688 573.932434,259.957489 573.891846,263.197754 
	C573.871399,264.830475 574.598694,266.474274 577.077271,265.835541 
	C584.027588,264.044464 584.040955,264.096405 587.775818,270.884155 
	C586.998901,273.211365 583.442261,272.810547 583.009888,275.796204 
	C583.795593,276.994385 584.698547,278.357239 585.587036,279.729462 
	C587.227783,282.263519 588.750000,282.841797 589.690552,279.321503 
	C590.101440,277.783783 590.711060,277.053528 592.411926,277.184326 
	C599.318665,277.715363 607.594543,284.987732 609.630798,292.490051 
	C607.334473,294.893341 604.582153,291.568237 602.279907,292.910126 
	C601.221924,294.359833 602.264404,295.089539 603.084839,295.916473 
	C603.779602,296.616730 605.109070,297.522156 604.985291,298.073578 
	C603.250000,305.803589 612.477478,310.149902 610.446350,317.306274 
	C611.905334,318.527496 612.860229,317.757660 613.805542,317.779388 
	C615.524902,317.818909 617.613159,316.590393 618.845825,318.605133 
	C619.890076,320.311890 618.726379,321.736237 617.649353,323.083832 
	C617.273376,323.554352 616.835938,324.408722 617.019409,324.829254 
	C620.311218,332.376007 613.238037,336.841125 611.357056,342.795654 
	C610.381592,345.883789 604.568665,344.963593 601.847778,347.467651 
	C597.864990,351.133026 595.272766,347.946716 592.363281,345.970856 
	C591.123962,345.129211 589.903748,344.254211 588.723816,343.331665 
	C586.709167,341.756409 585.066772,342.783051 583.274231,343.865234 
	C581.359192,345.021393 581.120667,346.571198 581.461426,348.562561 
	C581.932983,351.318115 584.165649,353.041626 585.528992,355.418854 
	C582.048584,359.238403 577.716797,358.253204 573.760986,357.727844 
	C570.576660,357.304932 567.876038,357.837860 565.144714,359.281586 
	C558.078674,363.016541 558.064941,362.990601 549.790100,359.141022 
	C549.178833,356.669556 552.751221,355.956848 552.128357,353.490051 
	C543.881470,350.604980 534.703064,354.089478 526.967468,351.201294 
	C525.221191,348.577454 528.313416,348.226440 527.684387,346.316956 
	C524.750977,345.627350 520.845459,346.358582 519.918030,341.465027 
	C520.363708,340.234406 520.661804,339.652100 520.959900,339.069794 
M571.029846,331.774567 
	C571.555969,332.171265 572.054993,332.611664 572.612549,332.957611 
	C576.634033,335.452484 579.427795,341.119202 585.757874,337.685181 
	C586.965698,337.029999 588.287903,338.892334 589.376038,339.920319 
	C590.987549,341.442871 592.140015,344.366150 594.873901,343.323303 
	C597.479370,342.329437 595.340820,339.368591 596.286926,337.492493 
	C596.379822,337.308289 596.060547,336.916229 595.745056,336.187561 
	C588.001770,334.501465 579.573425,334.115936 572.330688,329.604523 
	C571.417725,329.035858 570.461426,329.894196 571.029846,331.774567 
z"/>
<path fill="#000000" opacity="1.000000" stroke="none" 
	d="
M298.086517,292.102173 
	C298.113159,292.741180 298.426697,293.675537 298.121033,293.972443 
	C295.682648,296.341003 287.440033,296.290710 284.432465,295.699646 
	C278.134583,294.461945 276.322418,289.932220 274.346069,284.967072 
	C273.552216,282.972656 272.672241,280.561096 269.866333,279.992676 
	C268.437408,282.062683 269.039490,284.184662 269.466339,286.247101 
	C269.741394,287.576111 270.274200,289.025391 269.226990,290.058960 
	C266.332703,292.915558 267.971252,295.041534 270.114502,296.884491 
	C270.259644,298.567261 269.226044,299.725677 268.351257,299.917938 
	C263.475555,300.989380 261.770905,306.119537 257.546936,308.022827 
	C255.000748,309.170044 255.132584,310.993774 257.377014,312.553650 
	C262.207947,315.911133 263.524689,320.461365 263.498077,326.282715 
	C263.472534,331.872711 262.619354,337.563080 263.941620,343.138977 
	C264.944641,347.368439 259.982513,348.109039 259.152527,351.207428 
	C259.650574,352.706909 260.954834,352.576874 262.042664,352.835358 
	C263.734955,353.237457 266.037811,352.604126 266.679138,354.931000 
	C267.356720,357.389282 265.489380,358.891266 264.039032,360.496704 
	C262.437073,362.269958 260.034027,361.900024 258.143433,362.713898 
	C257.542725,364.093018 258.443115,364.811768 259.341644,365.102478 
	C265.253235,367.014954 264.143005,371.865112 264.061676,376.243988 
	C264.019409,378.519135 262.657135,379.670532 260.436005,379.195740 
	C257.866486,378.646545 258.101532,377.201569 259.112305,375.103180 
	C260.578094,372.060120 260.028564,369.171967 256.942352,366.128418 
	C256.100861,369.932159 258.463806,373.066254 256.505524,375.903687 
	C226.244781,361.707520 185.458267,292.063477 190.411880,262.987671 
	C197.426880,262.946564 201.126968,255.958160 207.480698,254.556076 
	C208.902908,255.261993 209.062317,256.501160 208.970734,257.632538 
	C208.513977,263.275452 210.701691,267.362122 215.210632,270.885101 
	C219.324753,274.099609 218.258057,284.049744 214.024841,287.150970 
	C213.009949,287.894501 211.422134,288.013855 211.131744,289.953217 
	C213.406021,291.313934 215.884521,290.836395 218.223740,290.307129 
	C221.413406,289.585419 222.980362,291.068542 223.749100,293.834076 
	C224.889267,297.935913 224.946548,302.121521 223.724121,306.170746 
	C222.583832,309.947906 219.468277,309.478912 216.715958,308.491547 
	C213.567490,307.362091 214.712158,305.261444 216.660049,303.142639 
	C213.710251,302.399384 211.488159,301.894745 209.468246,304.145721 
	C206.580109,307.364258 206.856247,309.651794 210.636414,311.707611 
	C212.851425,312.912201 215.298019,313.391479 217.763916,313.887939 
	C221.964828,314.733643 222.940445,317.090271 220.655167,320.683594 
	C219.685867,322.207703 218.000000,323.433044 220.023193,325.357178 
	C221.220596,326.495880 222.448334,327.095642 224.059189,326.375336 
	C226.351883,325.350159 226.434280,323.605194 226.003510,321.384186 
	C224.895874,315.673370 226.776276,311.249603 232.176559,308.646301 
	C233.845947,307.841553 234.659653,306.498810 235.032089,304.795105 
	C236.380356,298.627686 238.171463,292.482025 235.393112,286.211792 
	C234.646622,284.527069 234.297714,282.722900 235.570175,281.024231 
	C238.204636,280.737244 238.206558,283.248840 239.412567,284.395172 
	C241.291550,286.181152 243.709412,287.852478 246.036835,287.016632 
	C248.270447,286.214508 250.212555,284.482086 250.101746,281.004028 
	C250.001190,277.847015 251.202621,274.529816 254.473099,272.516022 
	C258.509247,270.030762 260.588776,266.106384 261.666687,261.559326 
	C262.228668,259.188568 262.458099,256.071899 265.852386,256.318542 
	C269.361511,256.573547 268.875610,259.615326 268.993134,262.103516 
	C269.047211,263.248352 269.033203,264.695709 269.687592,265.460266 
	C272.303680,268.516876 273.255371,272.044434 273.672272,275.930817 
	C273.869598,277.770355 275.241882,279.185913 276.809509,279.979431 
	C279.265625,280.146637 277.576050,276.992981 280.439819,277.049683 
	C281.984741,285.985413 289.309021,289.220734 297.553650,291.947937 
	C297.989319,292.009247 298.086517,292.102173 298.086517,292.102173 
z"/>
<path fill="#000000" opacity="1.000000" stroke="none" 
	d="
M372.850769,349.005981 
	C374.782806,350.776367 378.411743,351.155273 377.998962,353.704498 
	C377.388916,357.472076 378.394745,361.298248 377.190765,364.911499 
	C376.868530,365.878479 375.779785,366.997437 374.818115,367.279114 
	C367.519012,369.417236 360.702423,371.454010 352.455292,368.928955 
	C340.286407,365.203186 333.062408,356.078522 324.567078,348.112366 
	C323.905426,347.491943 323.406128,346.361511 324.002045,345.912628 
	C328.888184,342.232483 330.165924,333.942230 338.448273,334.819611 
	C339.101868,331.294983 335.915649,329.740479 335.014435,326.809235 
	C336.702667,325.107483 339.807892,324.340851 339.451752,321.504639 
	C340.767761,320.695587 341.538116,321.034363 342.359070,321.160126 
	C348.749695,322.139496 349.667603,323.511749 347.709595,330.212982 
	C347.171478,332.054779 347.205414,333.461792 348.578247,334.727844 
	C351.512482,337.433868 354.447052,340.142914 357.476685,342.739685 
	C358.187347,343.348816 359.316711,343.910431 360.185059,343.822052 
	C365.224854,343.309113 369.166809,345.306976 372.850769,349.005981 
M342.128540,351.419342 
	C340.276917,351.822449 338.182587,351.885712 337.624939,354.418884 
	C339.214447,355.627472 340.706970,354.653839 342.120361,354.766846 
	C347.788116,355.220001 353.595032,352.528320 359.158112,356.163818 
	C364.658844,359.758545 365.841644,359.298187 370.121918,354.245819 
	C361.371124,352.652466 352.510040,347.917786 342.128540,351.419342 
z"/>
<path fill="#000000" opacity="1.000000" stroke="none" 
	d="
M587.632568,253.489777 
	C585.353333,249.018478 581.967651,245.224747 584.338257,239.793945 
	C588.809937,240.372086 590.397766,245.430542 594.789124,246.490112 
	C596.636963,244.104340 595.608826,242.075821 593.997498,240.325531 
	C591.748047,237.882126 589.273193,235.647705 586.936890,233.282364 
	C585.103210,231.425934 584.209839,229.327698 586.383423,227.190170 
	C588.695190,224.916763 590.210083,226.885895 591.760803,228.444260 
	C592.210205,228.895813 592.809753,229.197983 593.194946,229.467026 
	C594.778320,229.248459 595.169495,227.988251 595.985474,227.205154 
	C598.628235,224.668777 603.258362,225.445236 603.884155,228.935471 
	C604.923035,234.729507 608.826233,237.166077 613.777161,238.855667 
	C610.046265,242.632523 603.999146,243.053589 600.902954,248.209854 
	C604.844666,250.042969 607.447998,247.776962 610.182007,246.659210 
	C612.324341,245.783356 614.245605,244.359299 616.396851,243.514496 
	C618.717041,242.603363 621.437195,241.788437 623.530701,243.542297 
	C625.754211,245.405075 622.866760,247.426514 622.793762,249.870071 
	C626.707642,249.731934 629.094238,251.622757 629.629333,255.381332 
	C630.033875,258.222168 628.036621,260.188568 625.902405,258.742645 
	C622.203064,256.236450 618.568176,259.866394 614.860901,257.827484 
	C613.333191,256.987274 612.906860,260.897003 610.885437,262.172516 
	C608.759216,261.844238 607.248230,258.915131 604.758362,260.118408 
	C603.565247,258.558533 604.693787,257.529053 604.707275,256.421936 
	C604.752014,252.762421 602.994507,251.564026 599.678711,253.269440 
	C597.929077,254.169373 596.431030,255.556183 594.812012,256.712830 
	C593.278503,257.808441 592.363220,260.372314 589.962280,259.464081 
	C587.479553,258.524963 587.699829,256.056427 587.632568,253.489777 
z"/>
<path fill="#000000" opacity="1.000000" stroke="none" 
	d="
M189.707367,247.414124 
	C190.157608,233.159363 192.461807,219.647888 197.154282,206.572403 
	C198.947006,201.577026 200.531204,196.502975 202.459122,191.561798 
	C203.276886,189.465836 203.965118,187.124222 206.393555,185.534943 
	C208.476044,187.181122 212.048141,187.340408 211.945221,191.307114 
	C211.858170,194.662125 211.127350,197.607849 206.136414,197.644974 
	C209.498077,201.532364 207.991089,206.836868 212.286087,209.709808 
	C213.580185,210.575424 213.388687,212.101349 212.089203,213.561249 
	C207.431976,218.793396 204.859268,225.882446 197.013321,228.347260 
	C204.581314,234.559189 204.576965,235.196686 197.938904,247.422485 
	C201.876770,252.389114 201.849716,253.634445 197.929352,256.760529 
	C195.313141,258.846680 193.238037,258.297333 191.969101,255.403580 
	C190.914719,252.999115 189.621521,250.596207 189.707367,247.414124 
z"/>
<path fill="#000000" opacity="1.000000" stroke="none" 
	d="
M534.708130,133.905914 
	C531.867249,130.835876 533.003906,136.084152 530.685669,135.133041 
	C528.659668,133.180695 531.034973,132.158493 532.303040,130.919952 
	C538.416687,124.948792 542.622498,117.918442 543.663757,109.345810 
	C544.958313,98.687042 539.866943,90.545876 529.350830,86.281967 
	C525.679443,84.793320 522.545349,83.269081 524.679810,77.265541 
	C538.837830,85.117477 555.292725,86.742157 569.430115,95.428703 
	C565.628113,96.587387 564.389709,98.542633 565.892151,101.863876 
	C566.020630,102.148041 566.007324,102.527092 565.968872,102.851257 
	C565.640076,105.625740 567.174561,109.571419 562.973999,110.262138 
	C559.293213,110.867393 557.327759,108.372147 556.737122,104.662048 
	C556.397766,102.530174 555.024963,100.821480 552.769653,99.142235 
	C548.064575,104.709740 551.296326,112.339622 547.250549,117.458847 
	C543.377502,122.359596 543.047180,129.235062 538.057251,133.446411 
	C542.067688,138.422363 542.067688,138.422363 538.833557,140.694641 
	C537.456726,138.517349 536.080078,136.340286 534.708130,133.905914 
z"/>
<path fill="#000000" opacity="1.000000" stroke="none" 
	d="
M379.461151,246.766251 
	C380.379456,245.177094 380.884338,243.715286 382.081299,243.080200 
	C383.594879,242.847290 384.489471,243.644150 384.615753,244.565262 
	C385.181396,248.690857 386.609436,252.048019 390.406891,254.413361 
	C392.236572,255.553040 391.482635,257.400543 389.416138,258.102325 
	C388.007996,258.580536 386.502808,258.768951 385.046234,259.109222 
	C383.150116,259.552216 380.711639,260.822357 381.437958,262.475128 
	C383.352814,266.832458 380.457428,271.357666 382.886749,275.794556 
	C384.722229,279.146851 381.571289,281.706421 377.253235,283.769196 
	C384.406006,285.279358 387.409790,290.965698 394.097931,291.497009 
	C399.254730,291.906647 399.760864,298.887939 403.131012,303.280945 
	C399.362793,303.855011 397.094727,305.314606 395.345612,308.076050 
	C392.864624,304.354767 394.519257,301.459564 396.235138,298.416168 
	C393.305664,296.438599 390.459869,296.807495 387.744080,298.119110 
	C380.843933,301.451569 378.141663,300.366425 378.405090,292.957153 
	C378.648010,286.124176 373.705658,281.988708 371.682068,276.410919 
	C371.202148,275.088043 369.455139,273.740326 370.178925,272.442688 
	C372.931824,267.507172 369.163177,266.519531 366.070618,264.970978 
	C364.030090,263.949249 362.038757,262.829132 359.973938,261.725555 
	C361.326019,259.431732 363.050629,260.222107 364.610168,260.410431 
	C373.739777,261.512787 374.847015,260.789795 377.389954,252.235443 
	C377.909851,250.486572 378.652832,248.804031 379.461151,246.766251 
z"/>
<path fill="#000000" opacity="1.000000" stroke="none" 
	d="
M420.579834,352.347351 
	C417.408295,358.666870 411.293701,358.642548 406.119141,360.990295 
	C405.665405,358.545563 406.954468,358.230316 407.992462,357.839325 
	C410.466125,356.907562 411.021881,355.171265 410.694519,352.685944 
	C410.041077,347.725739 410.744415,343.630249 417.199249,343.552917 
	C418.446869,343.537994 419.714661,342.749695 420.239349,340.780457 
	C414.933563,336.872314 407.172882,338.659882 402.118896,333.571503 
	C404.413452,330.485687 407.802460,329.306152 410.739380,327.648041 
	C412.507874,326.649658 414.438171,327.756866 415.026367,329.833038 
	C415.971741,333.169830 418.685089,334.921875 421.094849,336.858643 
	C424.098267,339.272491 427.364319,339.839722 430.551849,336.915680 
	C433.467987,334.240631 435.796997,333.662140 439.409302,336.856689 
	C442.763031,339.822632 447.100952,343.533325 452.502930,339.701050 
	C453.100250,339.277313 454.124481,339.327118 454.813812,340.026184 
	C451.636200,346.426025 448.701324,347.460754 442.532349,344.156830 
	C440.835205,343.247925 439.409729,343.236572 437.934143,344.396271 
	C436.214386,345.747955 434.375946,346.037506 432.331635,345.158356 
	C425.314423,342.140564 423.579803,342.945404 421.439087,350.129395 
	C421.249664,350.765015 420.972351,351.374451 420.579834,352.347351 
z"/>
<path fill="#000000" opacity="1.000000" stroke="none" 
	d="
M520.970215,338.690247 
	C520.661804,339.652100 520.363708,340.234406 519.913818,341.113312 
	C514.138794,339.657440 509.538696,336.144287 504.935669,332.675934 
	C503.089020,331.284515 501.456879,329.623352 498.325867,329.874725 
	C498.559448,334.407806 498.312012,338.877075 500.258270,343.266357 
	C495.497681,344.725464 497.596558,337.981384 493.429626,338.708527 
	C491.978180,340.682800 491.370056,344.927429 486.495483,343.184875 
	C487.759949,338.020142 490.825195,333.865479 493.021942,329.326111 
	C493.923645,327.462860 495.420990,326.088013 495.226746,323.510010 
	C495.022217,320.795990 497.458527,320.944489 499.134918,322.089417 
	C502.610474,324.462982 506.548828,323.237091 510.172852,323.958191 
	C516.026367,325.122925 523.109192,320.892365 527.796448,327.767731 
	C526.660706,332.000946 521.057922,333.400665 520.970215,338.690247 
z"/>
<path fill="#000000" opacity="1.000000" stroke="none" 
	d="
M567.563354,230.794418 
	C565.461731,230.491531 563.697083,230.108444 561.602478,229.653717 
	C560.302856,231.882126 558.989502,234.169281 557.639526,236.434570 
	C556.930725,237.623978 556.049133,238.719772 554.460938,238.258621 
	C552.773560,237.768723 552.289307,236.386978 552.220215,234.759354 
	C552.008484,229.770844 546.948303,223.892441 542.344849,223.445511 
	C541.447449,223.358414 540.181274,223.690674 539.596802,224.311310 
	C535.945374,228.188904 531.325684,226.963181 526.931702,226.916702 
	C525.611694,226.902756 524.074097,226.912216 523.666199,225.268097 
	C523.218933,223.465515 524.620728,222.506821 525.882019,221.730362 
	C528.249939,220.272614 530.729309,221.351349 533.177551,221.620316 
	C535.663635,221.893478 538.075500,222.451035 538.680847,218.579346 
	C539.092896,215.944183 541.009277,214.927567 543.955688,216.348648 
	C548.124695,218.359360 552.073364,220.294373 551.322693,226.324371 
	C554.967651,225.368927 554.934814,223.182755 554.770935,221.067368 
	C554.565125,218.412842 554.028015,215.779678 553.899597,213.124451 
	C553.682068,208.629120 557.892822,204.119919 562.784241,203.396881 
	C563.687622,204.305206 563.312317,205.258026 562.757629,206.109909 
	C558.065979,213.315323 558.529846,217.505936 564.736633,223.298279 
	C565.832031,224.320541 567.068420,225.197250 568.120178,226.259491 
	C569.612183,227.766403 570.221924,229.342377 567.563354,230.794418 
z"/>
<path fill="#000000" opacity="1.000000" stroke="none" 
	d="
M335.676147,268.625244 
	C333.819733,271.271088 331.466858,270.857391 329.752808,269.571869 
	C327.255707,267.699036 324.474976,265.193665 325.243317,261.786743 
	C326.361847,256.827026 325.429108,252.037811 325.257294,246.781219 
	C320.491119,247.474670 315.498779,249.749344 311.059753,246.584824 
	C309.403839,245.404358 308.868591,242.921722 309.643524,241.619415 
	C317.209717,239.647339 324.643677,241.393921 331.389435,237.042206 
	C332.989044,240.597336 331.157043,243.778259 330.381104,247.007950 
	C329.908173,248.976151 327.297089,250.602859 329.061310,252.888687 
	C330.815765,255.161942 333.060211,252.664124 334.661499,252.828751 
	C336.065674,253.731201 336.062317,254.778748 336.039124,255.755920 
	C335.952606,259.407227 337.398163,260.960846 341.246643,260.204132 
	C344.493530,259.565704 347.345978,260.764496 349.926483,263.570312 
	C343.966675,261.940247 339.151215,263.098419 335.676147,268.625244 
z"/>
<path fill="#000000" opacity="1.000000" stroke="none" 
	d="
M469.090759,345.725708 
	C467.963776,349.858215 465.816376,348.435699 463.683472,347.229919 
	C462.364929,346.484497 460.867401,345.587463 459.663422,347.144501 
	C458.669159,348.430359 459.811493,349.543182 460.471100,350.717133 
	C463.231293,355.629333 461.368683,364.446838 456.750580,366.798035 
	C454.826080,362.593628 460.438995,359.672424 457.944000,355.295807 
	C455.112244,354.899811 455.962952,353.641449 456.307556,350.236176 
	C456.929047,344.094604 461.782593,342.821381 464.447906,339.205933 
	C467.767303,334.703278 470.826965,330.296021 472.790375,324.624817 
	C474.592346,319.419983 478.480133,313.732056 483.754608,310.406830 
	C487.139526,308.272827 488.070709,312.086090 489.555817,314.068909 
	C491.459076,316.609985 491.146790,319.088043 488.209778,320.128693 
	C480.765900,322.766235 477.627899,330.470886 471.117188,334.122955 
	C470.374786,334.539398 469.670441,335.237122 470.095734,336.144318 
	C471.637299,339.432922 469.194305,342.258759 469.090759,345.725708 
z"/>
<path fill="#000000" opacity="1.000000" stroke="none" 
	d="
M297.938293,291.965454 
	C294.718353,285.573578 294.884216,284.509064 301.351624,282.722595 
	C308.899841,280.637573 316.650665,279.293518 324.292877,277.537872 
	C327.460968,276.810028 329.248627,279.354309 331.013885,280.835754 
	C332.687439,282.240204 331.013794,284.175140 328.979218,284.793762 
	C325.953522,285.713715 322.895996,286.539520 319.672333,286.287231 
	C315.582947,285.967163 312.809723,287.622437 312.148987,291.806335 
	C311.691986,294.700165 308.463257,296.216461 309.092651,299.659393 
	C303.887756,299.053192 303.212433,292.943237 298.387482,292.181030 
	C298.086517,292.102173 297.989319,292.009247 297.938293,291.965454 
z"/>
<path fill="#000000" opacity="1.000000" stroke="none" 
	d="
M554.255127,426.200134 
	C556.321655,425.427582 558.129150,424.952148 559.691467,424.051453 
	C565.729126,420.570679 571.962769,418.489105 578.945740,420.730835 
	C577.023560,426.647034 555.690002,437.754700 543.889832,438.912262 
	C542.614624,431.001740 543.000183,430.515198 554.255127,426.200134 
z"/>
<path fill="#000000" opacity="1.000000" stroke="none" 
	d="
M336.002869,276.334259 
	C339.325653,270.882599 343.643951,268.583160 349.861145,269.635437 
	C355.898132,270.657227 361.606964,272.275177 368.285461,275.501556 
	C361.636658,279.780396 355.139618,279.733612 349.913391,282.012848 
	C347.639465,281.215942 348.098663,278.723694 346.129883,278.145294 
	C343.299866,278.755768 343.394287,282.586761 340.357208,283.557343 
	C337.626709,282.238800 336.276031,279.809448 336.002869,276.334259 
z"/>
<path fill="#000000" opacity="1.000000" stroke="none" 
	d="
M385.641602,227.001892 
	C385.077515,226.020142 384.514771,224.848358 385.564453,224.695892 
	C391.586426,223.821106 396.072021,219.138489 402.149628,218.302536 
	C405.748444,217.807541 407.365875,218.627945 406.685699,222.372192 
	C406.270691,224.656815 405.577118,226.892883 405.204346,229.182632 
	C404.701477,232.271698 403.037231,233.915222 399.892639,234.066574 
	C399.232971,234.098328 398.580353,234.371704 397.924500,234.371628 
	C395.122223,234.371353 392.725189,237.846878 390.067688,236.098129 
	C387.704254,234.542892 387.986420,230.983566 386.615204,228.521179 
	C386.373291,228.086731 386.082581,227.679459 385.641602,227.001892 
z"/>
<path fill="#000000" opacity="1.000000" stroke="none" 
	d="
M483.088562,166.820160 
	C484.631805,168.059509 486.360779,168.603363 487.037933,170.749512 
	C485.640991,172.329712 484.044983,174.119415 484.358337,176.947708 
	C481.113312,176.100250 479.985382,173.301147 477.627258,172.087372 
	C475.451477,170.967438 473.881531,169.409134 470.868530,170.300278 
	C467.936157,171.167557 467.135986,168.783630 468.124268,166.270920 
	C469.687042,162.297379 472.161469,158.742386 472.781342,154.309250 
	C473.032959,152.509918 474.935883,150.550323 477.022675,150.625305 
	C479.487732,150.713882 479.777954,153.255096 480.074738,155.158325 
	C480.428528,157.426620 481.273529,159.689468 480.584961,162.061691 
	C479.960876,164.211807 481.209869,165.514984 483.088562,166.820160 
z"/>
<path fill="#000000" opacity="1.000000" stroke="none" 
	d="
M341.440430,416.556641 
	C353.378876,420.676239 365.614838,422.183838 377.096100,426.375885 
	C343.119263,422.559235 311.691589,411.134521 282.114014,394.319763 
	C288.991089,395.662598 294.953735,399.211121 301.190094,402.211426 
	C307.471771,405.233490 313.955475,407.884186 320.674133,409.906097 
	C327.505493,411.961945 334.267120,414.249634 341.440430,416.556641 
z"/>
<path fill="#000000" opacity="1.000000" stroke="none" 
	d="
M512.147095,400.169373 
	C506.509888,403.826874 500.437469,405.714050 494.747681,408.412567 
	C491.995514,409.717865 489.373199,408.124512 486.680267,407.407654 
	C490.240723,400.012512 497.994202,397.405853 504.190552,401.419373 
	C506.674744,399.866516 510.381012,399.113190 507.538696,394.628479 
	C506.097595,392.354675 509.267365,391.875366 509.875580,390.331970 
	C509.773132,388.843719 506.877899,387.881592 508.966003,386.089325 
	C510.491028,384.780365 511.618011,385.697571 512.660461,387.056152 
	C514.199524,389.061951 515.511719,385.662476 517.843567,387.354858 
	C517.249634,391.758514 515.553650,396.099274 512.147095,400.169373 
z"/>
<path fill="#000000" opacity="1.000000" stroke="none" 
	d="
M543.953979,170.180145 
	C548.302734,171.188293 549.206177,176.020828 553.419128,177.136749 
	C549.740662,179.163544 549.002380,185.573380 543.243347,182.766113 
	C541.376038,184.048630 543.320801,186.287933 540.862793,187.849075 
	C539.876892,188.402924 539.681274,185.946747 538.191772,185.887314 
	C536.498169,186.074173 536.753479,188.832275 534.766235,188.900772 
	C530.308411,185.452225 530.347290,184.195969 535.291870,182.249588 
	C537.272217,181.470078 537.336243,180.402008 537.482178,178.504562 
	C537.776428,174.680237 538.719543,170.855515 543.953979,170.180145 
z"/>
<path fill="#000000" opacity="1.000000" stroke="none" 
	d="
M342.021484,163.357361 
	C349.900146,166.236618 353.772522,171.728806 353.377136,178.822067 
	C353.301300,180.182022 352.370850,181.618622 351.391724,180.889328 
	C348.181183,178.498001 347.319092,182.176834 344.451843,183.326706 
	C343.907532,177.528748 338.035217,174.095551 338.944977,167.862671 
	C339.197845,166.129959 339.605957,164.197617 342.021484,163.357361 
z"/>
<path fill="#000000" opacity="1.000000" stroke="none" 
	d="
M501.969299,311.127930 
	C500.109528,310.392273 498.922119,310.532166 497.652710,311.887054 
	C495.302612,314.395386 493.780151,312.814453 493.016632,310.377777 
	C492.250336,307.932281 492.268951,305.106445 493.526520,303.057434 
	C495.808868,299.338654 498.781525,296.043549 501.992828,291.890320 
	C503.748383,298.724060 502.583160,305.352814 506.293427,310.621033 
	C505.061768,312.906067 503.630188,311.595062 501.969299,311.127930 
z"/>
<path fill="#000000" opacity="1.000000" stroke="none" 
	d="
M534.419373,261.241333 
	C532.979736,263.887115 530.911255,263.685150 529.066772,262.755554 
	C527.052429,261.740326 525.155518,261.071228 523.027222,262.356964 
	C522.484253,258.685028 522.484253,258.685028 528.763428,254.035065 
	C527.767700,252.361053 525.850342,254.885681 524.980164,253.214142 
	C526.824829,247.468201 528.394409,246.775650 535.856628,248.749527 
	C534.794800,250.273239 531.867432,251.577133 534.637573,253.715805 
	C537.801636,256.158569 536.525513,258.550079 534.419373,261.241333 
z"/>
<path fill="#000000" opacity="1.000000" stroke="none" 
	d="
M427.831573,391.079620 
	C429.264313,394.306641 429.105743,397.483459 429.873291,400.500458 
	C424.525024,401.061005 424.525024,401.061005 421.054749,389.073883 
	C418.385193,388.588287 418.923798,392.906738 416.212799,392.362976 
	C416.215729,387.441223 422.262268,382.719025 426.563446,384.340057 
	C430.305542,385.750366 427.753723,388.519867 427.831573,391.079620 
z"/>
<path fill="#000000" opacity="1.000000" stroke="none" 
	d="
M336.471313,202.766296 
	C335.908691,201.676620 336.425262,200.793289 336.299255,200.126938 
	C335.562378,196.230179 336.797211,193.722229 340.826813,192.958817 
	C344.911621,192.184952 346.945282,194.864182 348.516724,197.909760 
	C350.377747,201.516602 347.679382,203.615677 345.301910,205.282486 
	C341.820404,207.723328 339.084839,205.617020 336.471313,202.766296 
z"/>
<path fill="#000000" opacity="1.000000" stroke="none" 
	d="
M468.930786,179.972061 
	C470.390411,181.606995 470.236908,183.330307 470.192047,184.972977 
	C470.120422,187.596039 471.391876,191.135254 466.596375,190.936523 
	C462.093811,190.749954 459.847656,188.578857 460.370789,184.356018 
	C460.670929,181.933319 458.486328,180.985260 458.020294,179.154037 
	C464.660065,172.237381 464.789459,172.207535 467.480438,176.963669 
	C466.880676,178.670990 465.244324,177.976196 464.090546,178.400543 
	C462.966095,178.814117 461.893951,179.302124 462.127899,180.916168 
	C464.828705,183.643936 466.366699,179.448059 468.930786,179.972061 
z"/>
<path fill="#000000" opacity="1.000000" stroke="none" 
	d="
M503.216644,140.082123 
	C505.223480,138.459885 507.244263,137.798965 509.428040,137.568115 
	C510.019440,139.081604 510.889771,140.515335 511.109528,142.042664 
	C511.519135,144.889343 512.638367,146.342316 515.707520,145.542496 
	C517.155396,145.165176 518.412170,145.613510 519.083374,146.983322 
	C519.773621,148.392029 518.759949,149.183167 517.686401,149.725815 
	C515.473145,150.844528 517.926819,153.349838 515.934326,154.762543 
	C514.105408,153.898346 515.678284,150.256927 512.570557,150.288940 
	C510.549896,150.309769 508.603668,152.541565 506.677673,150.747147 
	C505.328522,148.366531 508.912811,148.918411 508.531128,147.548706 
	C507.172424,144.422562 501.527527,145.183624 503.216644,140.082123 
z"/>
<path fill="#000000" opacity="1.000000" stroke="none" 
	d="
M572.187134,190.684052 
	C576.887878,193.706680 574.970886,196.650879 572.567261,199.481583 
	C570.201172,202.268021 567.271606,202.360046 564.764343,200.002960 
	C562.019531,197.422455 561.834412,193.999939 564.096680,191.034241 
	C566.247437,188.214737 569.181091,189.841721 572.187134,190.684052 
z"/>
<path fill="#000000" opacity="1.000000" stroke="none" 
	d="
M552.132812,272.263062 
	C553.455383,269.241272 554.205627,266.088409 558.394226,266.337372 
	C560.880676,273.050201 558.307495,279.363525 556.567200,285.930878 
	C555.414185,281.333984 549.566650,278.534485 552.132812,272.263062 
z"/>
<path fill="#000000" opacity="1.000000" stroke="none" 
	d="
M415.297302,290.433685 
	C418.310883,297.000763 416.536896,302.960327 414.579102,309.067322 
	C410.789734,308.300110 411.634949,304.683716 409.967010,302.834625 
	C407.791443,300.422791 407.928680,298.727631 410.530273,296.218109 
	C411.566956,295.218079 411.516907,291.893402 412.954285,289.945007 
	C413.827301,288.761658 414.511597,289.024597 415.297302,290.433685 
z"/>
<path fill="#000000" opacity="1.000000" stroke="none" 
	d="
M435.149628,200.046341 
	C433.151917,196.255692 430.839783,198.437988 428.575195,199.496262 
	C426.615265,198.422150 426.952271,196.440125 426.550812,194.773514 
	C434.235107,191.132019 438.439423,192.676453 440.801758,200.842651 
	C442.177734,205.599243 437.313660,204.706055 434.934204,206.164032 
	C433.278961,203.947510 435.009247,202.190475 435.149628,200.046341 
z"/>
<path fill="#000000" opacity="1.000000" stroke="none" 
	d="
M423.292694,223.236862 
	C422.090515,224.414093 421.280029,225.610474 420.154083,226.156769 
	C417.634033,227.379532 415.484589,226.648727 416.227112,223.578857 
	C417.294128,219.167267 419.067291,214.933441 416.577423,209.830872 
	C423.430389,212.891235 425.813507,217.983551 423.292694,223.236862 
z"/>
<path fill="#000000" opacity="1.000000" stroke="none" 
	d="
M441.342407,192.501068 
	C439.975037,189.923584 438.027161,187.886353 438.907745,184.678055 
	C442.546234,184.891922 444.213684,187.730515 446.245941,189.926102 
	C448.259613,192.101639 450.096283,194.441467 452.000366,196.717789 
	C452.925842,197.824234 453.509521,199.027496 452.111694,200.142685 
	C450.862335,201.139450 448.446777,201.629959 448.205017,200.362671 
	C447.432404,196.312958 442.595642,196.275787 441.342407,192.501068 
z"/>
<path fill="#000000" opacity="1.000000" stroke="none" 
	d="
M358.149536,289.096924 
	C362.885010,289.223389 366.722839,286.832336 371.284790,286.351898 
	C367.185669,292.315063 348.949829,295.555908 342.714050,290.574249 
	C347.716034,290.099640 352.717987,289.625061 358.149536,289.096924 
z"/>
<path fill="#000000" opacity="1.000000" stroke="none" 
	d="
M512.992554,206.716125 
	C509.768127,202.805099 508.405457,199.204498 512.904724,195.069901 
	C516.105103,192.128891 515.989197,187.211166 517.910339,182.904068 
	C521.114990,186.534775 520.230896,191.056305 518.220764,192.967834 
	C514.812378,196.208862 514.799377,199.665985 514.537964,203.533386 
	C514.465210,204.610016 513.720886,205.641251 512.992554,206.716125 
z"/>
<path fill="#000000" opacity="1.000000" stroke="none" 
	d="
M389.130859,112.753036 
	C394.007202,113.581276 398.966003,111.361328 403.667114,114.343239 
	C397.829865,114.113846 397.749146,118.623436 396.729431,122.486786 
	C393.091370,120.857903 390.788513,118.297646 388.483704,115.759117 
	C387.554199,114.735359 387.485291,113.694511 389.130859,112.753036 
z"/>
<path fill="#000000" opacity="1.000000" stroke="none" 
	d="
M445.108093,420.444275 
	C446.821503,421.587311 446.742493,423.731873 448.437317,424.387878 
	C450.272095,424.363403 450.393829,422.176483 451.998260,421.720673 
	C454.233124,422.184174 454.859650,423.741516 454.177490,425.740540 
	C453.595184,427.447052 452.033844,427.383850 450.436005,427.337006 
	C445.430634,427.190247 440.494446,427.079315 438.609528,421.011597 
	C440.640320,419.006317 442.728149,419.761475 445.108093,420.444275 
z"/>
<path fill="#000000" opacity="1.000000" stroke="none" 
	d="
M326.706116,321.310547 
	C321.532928,318.596710 321.370972,317.028015 325.746521,314.369263 
	C327.705627,313.178772 329.595795,311.738251 332.282288,311.684296 
	C333.185120,313.152283 334.116089,314.665985 335.182007,316.399139 
	C332.344788,318.078064 329.686768,319.650970 326.706116,321.310547 
z"/>
<path fill="#000000" opacity="1.000000" stroke="none" 
	d="
M408.157532,366.838135 
	C410.931854,364.728821 413.470795,362.842285 416.061523,361.029724 
	C416.904144,360.440155 417.904907,360.118744 418.735016,361.115143 
	C419.331268,361.830872 419.468994,362.836334 418.802124,363.391815 
	C416.322144,365.457489 416.525909,368.255920 416.838226,371.996063 
	C413.363495,370.263916 409.191681,371.851624 408.157532,366.838135 
z"/>
<path fill="#000000" opacity="1.000000" stroke="none" 
	d="
M413.632782,284.104706 
	C408.066315,284.950439 408.566406,280.344452 407.932709,277.656616 
	C407.319611,275.055969 409.492432,273.246948 412.604279,272.822968 
	C414.391235,276.445160 416.240356,279.896667 413.632782,284.104706 
z"/>
<path fill="#000000" opacity="1.000000" stroke="none" 
	d="
M476.149658,451.897186 
	C479.008606,450.659149 481.486176,450.221130 483.991119,451.700714 
	C482.807526,454.835175 477.088440,458.367065 474.390381,457.834991 
	C473.095612,457.579651 472.211121,456.877869 472.175964,455.562927 
	C472.112061,453.172699 474.210449,452.855225 476.149658,451.897186 
z"/>
<path fill="#000000" opacity="1.000000" stroke="none" 
	d="
M283.936554,232.685608 
	C281.634491,232.687149 279.682037,232.575882 277.288452,232.439484 
	C278.450806,228.243927 280.933594,226.033356 284.439667,224.360229 
	C286.454407,227.374207 286.787231,229.996765 283.936554,232.685608 
z"/>
<path fill="#000000" opacity="1.000000" stroke="none" 
	d="
M539.334473,148.732300 
	C541.093567,145.157471 542.890137,141.873489 546.556213,139.904755 
	C548.848755,142.484436 550.523743,144.697662 546.022034,146.243713 
	C544.166321,146.881027 543.891052,148.644714 542.963440,149.946014 
	C541.005615,152.692749 540.174500,151.049454 539.334473,148.732300 
z"/>
<path fill="#000000" opacity="1.000000" stroke="none" 
	d="
M452.214905,386.052002 
	C453.781982,384.330933 454.502625,385.254456 454.508636,386.663971 
	C454.522797,389.983795 454.412933,393.315277 454.123505,396.621948 
	C453.864532,399.580322 451.900269,400.345123 448.833466,400.021271 
	C449.967743,395.279327 451.034332,390.820251 452.214905,386.052002 
z"/>
<path fill="#000000" opacity="1.000000" stroke="none" 
	d="
M408.347900,258.587311 
	C408.746307,255.460281 410.805237,256.663666 412.391693,256.820892 
	C413.830414,256.963470 415.147156,257.874847 415.053497,259.277740 
	C414.883179,261.827667 414.678101,264.566986 413.602142,266.800842 
	C412.814941,268.435211 411.408844,267.277405 410.898407,265.780823 
	C410.109558,263.468170 410.136597,260.872467 408.347900,258.587311 
z"/>
<path fill="#000000" opacity="1.000000" stroke="none" 
	d="
M532.503357,357.076477 
	C536.808594,357.064423 539.571899,358.347534 539.384644,363.201660 
	C536.083801,363.982117 533.332947,362.462616 530.986145,361.068512 
	C528.124023,359.368256 529.889465,357.934265 532.503357,357.076477 
z"/>
<path fill="#000000" opacity="1.000000" stroke="none" 
	d="
M303.086212,218.790161 
	C304.212250,222.685684 307.804901,224.948318 308.653809,228.956085 
	C302.715118,227.074860 299.390778,220.475464 300.746460,213.901855 
	C303.584961,214.821564 303.584961,214.821564 303.086212,218.790161 
z"/>
<path fill="#000000" opacity="1.000000" stroke="none" 
	d="
M366.909729,338.101135 
	C363.998016,337.908844 362.098267,336.433838 359.981903,335.099640 
	C362.524597,334.565277 364.983612,334.783295 367.014679,333.011047 
	C368.302582,331.887238 370.083038,330.244812 371.523438,332.757996 
	C372.679291,334.774689 371.381622,336.204529 369.598297,337.150757 
	C368.875275,337.534393 368.069855,337.762726 366.909729,338.101135 
z"/>
<path fill="#000000" opacity="1.000000" stroke="none" 
	d="
M451.890869,458.937866 
	C455.831543,458.881348 459.392395,458.881348 463.806000,458.881348 
	C459.905243,462.380524 456.273193,463.869202 451.819580,462.151520 
	C449.919678,461.418793 448.738983,460.324493 451.890869,458.937866 
z"/>
<path fill="#000000" opacity="1.000000" stroke="none" 
	d="
M327.504456,195.567139 
	C329.682739,196.862350 332.137543,197.405899 332.536713,200.730621 
	C328.144592,200.009964 325.011963,197.558029 321.634583,195.714111 
	C320.500061,195.094711 320.020996,193.891815 320.777832,192.723633 
	C321.842316,191.080399 323.083160,192.011505 324.154053,192.813431 
	C325.215424,193.608231 326.189850,194.519180 327.504456,195.567139 
z"/>
<path fill="#000000" opacity="1.000000" stroke="none" 
	d="
M297.322205,192.006470 
	C293.121277,193.264053 293.153381,189.574982 290.858521,187.845093 
	C293.489044,186.325684 295.499664,184.177780 297.646698,185.557190 
	C300.121307,187.147064 298.360931,189.640411 297.322205,192.006470 
z"/>
<path fill="#000000" opacity="1.000000" stroke="none" 
	d="
M271.435730,375.374908 
	C271.008301,376.548096 270.764954,377.475250 270.585938,378.414642 
	C270.404999,379.364136 269.784851,379.846985 268.909729,379.880524 
	C267.745728,379.925110 267.005219,379.174622 266.999115,378.095245 
	C266.984100,375.432770 267.480225,372.830139 269.615753,371.013123 
	C270.608307,370.168640 271.905792,370.734833 272.713806,371.584412 
	C274.310120,373.263000 272.623047,374.129272 271.435730,375.374908 
z"/>
<path fill="#000000" opacity="1.000000" stroke="none" 
	d="
M477.318176,339.964294 
	C474.620117,340.593323 473.988831,338.834839 474.059906,337.187378 
	C474.173615,334.553619 476.372040,333.886688 478.773193,333.316345 
	C481.018158,336.005615 479.073151,337.857849 477.318176,339.964294 
z"/>
<path fill="#000000" opacity="1.000000" stroke="none" 
	d="
M295.124542,353.803101 
	C297.810608,355.456207 297.503571,357.317413 296.039398,359.398804 
	C293.789459,359.738312 292.353119,358.286926 290.670593,357.283600 
	C290.875885,354.618988 292.744354,354.088043 295.124542,353.803101 
z"/>
<path fill="#000000" opacity="1.000000" stroke="none" 
	d="
M520.651855,202.123322 
	C523.470459,200.967316 524.310486,203.024033 524.393738,204.658432 
	C524.525024,207.236923 522.669861,208.680557 520.108215,209.461090 
	C518.025574,206.843353 519.911377,204.651245 520.651855,202.123322 
z"/>
<path fill="#000000" opacity="1.000000" stroke="none" 
	d="
M509.477142,81.763397 
	C510.182037,77.597717 513.965576,77.403503 517.274109,75.110382 
	C516.296204,80.097504 514.763855,83.062737 509.477142,81.763397 
z"/>
<path fill="#000000" opacity="1.000000" stroke="none" 
	d="
M290.908997,232.255768 
	C294.284729,229.528503 295.872101,229.818390 298.846344,233.719818 
	C295.951965,233.453888 293.118835,236.343719 290.908997,232.255768 
z"/>
<path fill="#000000" opacity="1.000000" stroke="none" 
	d="
M610.468628,222.417694 
	C612.440857,222.052368 614.064758,222.006927 613.939514,224.240097 
	C613.821167,226.351303 611.921265,226.656769 610.329590,227.042374 
	C609.137085,227.331284 607.944885,227.168671 607.464844,225.776642 
	C606.623291,223.336197 608.563782,223.077362 610.468628,222.417694 
z"/>
<path fill="#000000" opacity="1.000000" stroke="none" 
	d="
M335.640137,309.075073 
	C336.105194,308.064575 336.405487,307.265228 336.942719,306.685455 
	C338.002441,305.541870 339.275879,303.542633 340.886414,305.087158 
	C343.123932,307.232971 340.230408,308.433380 339.221619,309.808319 
	C337.961914,311.525208 336.459778,312.373535 335.640137,309.075073 
z"/>
<path fill="#000000" opacity="1.000000" stroke="none" 
	d="
M399.616882,370.429138 
	C401.132751,371.001495 402.514984,371.226227 402.931091,372.759216 
	C399.201813,374.610382 398.597565,374.421021 395.731934,370.479858 
	C396.868317,369.132355 398.113159,370.175568 399.616882,370.429138 
z"/>
<path fill="#000000" opacity="1.000000" stroke="none" 
	d="
M492.464081,383.691040 
	C494.796326,384.687347 495.554688,385.987030 494.086426,388.247223 
	C491.702393,387.659943 490.322937,385.963196 488.954102,384.254089 
	C489.922668,382.578461 491.091003,383.507629 492.464081,383.691040 
z"/>
<path fill="#000000" opacity="1.000000" stroke="none" 
	d="
M456.796814,373.169891 
	C455.167999,374.064423 453.800995,374.830170 451.496674,376.120972 
	C452.095673,371.396149 455.806732,371.531189 457.761536,369.691742 
	C459.294098,371.502319 458.013306,372.224243 456.796814,373.169891 
z"/>
<path fill="#000000" opacity="1.000000" stroke="none" 
	d="
M366.314484,237.023499 
	C365.399933,239.318115 364.136749,240.005905 363.904449,237.233002 
	C363.631927,233.980057 365.265503,231.757248 369.066742,231.689728 
	C369.296021,234.254791 365.999115,234.460632 366.314484,237.023499 
z"/>
<path fill="#000000" opacity="1.000000" stroke="none" 
	d="
M628.177795,185.176651 
	C627.800171,183.724457 627.419617,182.357574 629.103638,182.192795 
	C630.895081,182.017517 632.175964,183.119049 633.019714,184.651962 
	C633.463562,185.458206 633.390198,186.400726 632.572144,186.794861 
	C630.845520,187.626740 629.411499,186.989822 628.177795,185.176651 
z"/>
<path fill="#000000" opacity="1.000000" stroke="none" 
	d="
M392.149475,249.306885 
	C389.050110,250.281403 388.795471,248.710968 389.396637,246.622223 
	C389.779999,245.290207 390.738281,244.023743 392.238495,244.692459 
	C394.881439,245.870468 393.214142,247.556915 392.149475,249.306885 
z"/>
<path fill="#000000" opacity="1.000000" stroke="none" 
	d="
M558.818970,246.425064 
	C558.672791,247.701553 557.844360,247.853592 557.032288,247.869843 
	C555.697693,247.896591 554.375610,247.712387 553.665955,246.370392 
	C553.346008,245.765366 553.432495,245.064072 554.045959,244.632156 
	C555.391296,243.685074 556.511475,244.464127 557.601624,245.201660 
	C558.002502,245.472900 558.344849,245.830551 558.818970,246.425064 
z"/>
</svg>